# xmcd
#
# Track frame offsets:
#	150
#	16759
#	42028
#	67617
#	83802
#	98815
#	113204
#	132341
#	148230
#	166239
#	190052
#	206605
#	222738
#	251115
#
# Disc length: 3694 seconds
#
# Revision: 0
# Processed by: cddbd v1.5.1PL0 Copyright (c) Steve Scherf et al.
# Submitted via: dBpowerAMP V4.0
#
DISCID=c30e6c0e
DTITLE=Marty Kopatich - That Old Farm
DYEAR=2003
DGENRE=Country
TTITLE0=That Old Farm
TTITLE1=My Mama's Waltz
TTITLE2=Everything In You
TTITLE3=Life is Full of Harmonies
TTITLE4=I Want Another
TTITLE5=Ain't Got Time
TTITLE6=In One Ear And Out the Other
TTITLE7=The Seven Trunk Tree
TTITLE8=Just Loving You
TTITLE9=Please Come Back
TTITLE10=Never Mind
TTITLE11=A Day Late A Dollar Short
TTITLE12=After The Rain
TTITLE13=Senses
EXTD=
EXTT0=
EXTT1=
EXTT2=
EXTT3=
EXTT4=
EXTT5=
EXTT6=
EXTT7=
EXTT8=
EXTT9=
EXTT10=
EXTT11=
EXTT12=
EXTT13=
PLAYORDER=
